<?xml version="1.0" standalone="no"?>
<!DOCTYPE svg PUBLIC "-//W3C//DTD SVG 20010904//EN"
 "http://www.w3.org/TR/2001/REC-SVG-20010904/DTD/svg10.dtd">
<svg version="1.0" xmlns="http://www.w3.org/2000/svg"
 width="256.000000pt" height="256.000000pt" viewBox="0 0 256.000000 256.000000"
 preserveAspectRatio="xMidYMid meet">

<g transform="translate(0.000000,256.000000) scale(0.100000,-0.100000)"
fill="#000000" stroke="none">
<path d="M1726 2399 c-58 -14 -153 -68 -201 -115 -208 -202 -180 -527 61 -705
31 -22 56 -50 60 -64 5 -22 12 -25 50 -25 l44 0 0 143 0 144 -41 12 c-49 15
-114 77 -122 118 -25 124 127 204 217 114 27 -27 31 -39 34 -101 5 -89 22 -92
22 -4 0 64 2 68 39 105 32 33 45 39 80 39 81 0 131 -49 131 -127 0 -58 -30
-97 -99 -129 l-60 -29 0 -142 -1 -143 45 0 c38 0 45 3 45 19 0 12 28 42 73 78
138 113 193 229 185 397 -3 83 -8 102 -40 167 -60 120 -153 201 -277 239 -67
21 -176 25 -245 9z"/>
<path d="M595 1959 c-256 -25 -477 -96 -549 -178 -27 -30 -25 -76 5 -108 51
-56 238 -125 411 -153 205 -32 526 -30 718 5 94 18 250 62 250 72 0 3 -11 20
-24 37 -39 52 -76 134 -95 209 l-17 72 -90 17 c-185 35 -417 45 -609 27z"/>
<path d="M1672 1958 c-6 -6 -12 -17 -12 -24 0 -14 56 -64 71 -64 6 0 9 21 7
48 -3 42 -6 47 -28 50 -14 2 -31 -3 -38 -10z"/>
<path d="M1947 1963 c-11 -11 -8 -93 4 -93 6 0 24 13 40 30 25 25 28 33 19 50
-10 19 -49 27 -63 13z"/>
<path d="M1830 1625 c0 -83 4 -135 10 -135 6 0 10 52 10 135 0 83 -4 135 -10
135 -6 0 -10 -52 -10 -135z"/>
<path d="M22 1416 c3 -159 4 -165 28 -191 54 -57 217 -120 393 -151 158 -27
452 -34 630 -15 4 1 7 19 7 41 0 80 53 140 124 140 22 0 104 -11 181 -25 l140
-26 33 37 c28 29 33 41 27 62 -4 15 -9 66 -12 114 -5 86 -5 88 -38 108 l-34
21 -86 -30 c-385 -136 -1046 -112 -1332 50 -29 16 -55 29 -59 29 -3 0 -4 -74
-2 -164z m882 -168 c8 -13 8 -23 0 -35 -9 -14 -28 -19 -94 -21 -85 -3 -110 6
-110 37 0 34 22 42 109 39 67 -2 86 -7 95 -20z"/>
<path d="M1657 1393 c-13 -13 -7 -34 18 -58 23 -24 29 -25 162 -25 157 0 183
9 183 61 l0 29 -178 0 c-98 0 -182 -3 -185 -7z"/>
<path d="M1748 1198 c19 -20 33 -23 92 -23 59 0 73 3 92 23 l22 22 -114 0
-114 0 22 -22z"/>
<path d="M1176 1138 c-14 -19 -16 -74 -16 -400 0 -407 -1 -401 53 -413 55 -12
592 -105 609 -105 17 0 18 19 18 414 l0 414 -27 6 c-59 12 -598 106 -610 106
-6 0 -19 -10 -27 -22z m318 -168 c203 -36 203 -36 211 -61 9 -26 -11 -49 -42
-49 -51 0 -329 53 -350 66 -27 17 -29 36 -7 58 8 9 16 16 17 16 1 0 78 -13
171 -30z m7 -160 c93 -17 176 -33 184 -36 20 -8 29 -42 15 -59 -17 -20 -39
-19 -214 11 -151 26 -196 42 -196 69 0 13 26 45 36 45 3 0 82 -14 175 -30z
m33 -166 c141 -25 159 -30 169 -51 13 -29 -5 -53 -42 -53 -50 0 -341 57 -356
70 -32 27 -1 75 44 67 14 -3 97 -17 185 -33z m-24 -155 c96 -17 181 -35 187
-41 18 -14 16 -43 -3 -59 -14 -11 -43 -9 -188 15 -170 28 -216 43 -216 71 0
14 26 45 38 45 3 0 85 -14 182 -31z"/>
<path d="M2195 1106 l-290 -52 -3 -418 -2 -419 27 6 c16 3 152 27 303 53 203
36 279 53 292 66 17 17 18 47 18 396 0 326 -2 381 -16 400 -8 12 -21 22 -27
21 -7 0 -142 -24 -302 -53z m205 -131 c15 -18 4 -52 -19 -60 -45 -14 -353 -64
-366 -59 -23 9 -29 44 -11 62 9 10 73 26 163 43 173 32 216 34 233 14z m0
-160 c15 -18 4 -52 -18 -59 -48 -15 -355 -64 -367 -60 -23 9 -29 44 -11 63 11
10 70 26 159 42 168 31 220 34 237 14z m7 -176 c6 -33 -18 -43 -198 -75 -170
-31 -185 -32 -201 -17 -10 9 -18 21 -18 27 1 31 26 40 196 71 148 27 182 30
199 20 11 -7 21 -19 22 -26z m0 -155 c13 -35 -28 -51 -207 -82 -159 -27 -177
-29 -192 -15 -10 9 -18 21 -18 27 1 32 25 41 197 71 180 32 207 32 220 -1z"/>
<path d="M22 966 c3 -160 4 -165 28 -191 52 -56 212 -117 392 -151 94 -18 469
-31 573 -19 l65 7 0 182 0 182 -77 -8 c-327 -29 -712 24 -909 127 -37 19 -69
35 -71 35 -2 0 -3 -74 -1 -164z m882 -168 c8 -13 8 -23 0 -35 -9 -14 -28 -19
-94 -21 -85 -3 -110 6 -110 37 0 34 22 42 109 39 67 -2 86 -7 95 -20z"/>
<path d="M20 528 c0 -134 2 -157 20 -185 38 -64 200 -131 405 -169 82 -16 148
-19 365 -19 268 1 360 10 490 48 l45 13 -70 13 c-101 17 -128 28 -161 62 -28
29 -29 35 -32 135 l-4 104 -26 -7 c-55 -15 -452 -8 -567 10 -152 24 -286 61
-375 105 -41 20 -78 39 -82 40 -5 2 -8 -65 -8 -150z m900 -172 c6 -8 10 -25 8
-38 -3 -22 -8 -23 -94 -26 -104 -3 -126 8 -106 53 11 24 16 25 96 25 61 0 87
-4 96 -14z"/>
</g>
</svg>
