<!-- icon666.com - MILLIONS OF FREE VECTOR ICONS --><svg id="Icons" viewBox="0 0 60 60" xmlns="http://www.w3.org/2000/svg"><path d="m5 47v-38a2.006 2.006 0 0 1 2-2h46a2.006 2.006 0 0 1 2 2v38z" fill="#205b75"></path><path d="m59 55v3a1 1 0 0 1 -1 1h-56a1 1 0 0 1 -1-1v-3l4-10h50z" fill="#cadbea"></path><path d="m59 55v3a1 1 0 0 1 -1 1h-56a1 1 0 0 1 -1-1v-3z" fill="#abbbcc"></path><path d="m19 55 1.749-4.371a1 1 0 0 1 .928-.629h16.646a1 1 0 0 1 .928.629l1.749 4.371z" fill="#e1eaf4"></path><path d="m43 11h7a1 1 0 0 1 1 1v28a1 1 0 0 1 -1 1h-40a1 1 0 0 1 -1-1v-28a1 1 0 0 1 1-1z" fill="#114559"></path><g fill="#abbbcc"><path d="m19 41h-6v-7a4 4 0 0 1 4-4h1.27z"></path><path d="m41.73 30h1.27a4 4 0 0 1 4 4v7h-6z"></path><path d="m17 11h-1a3 3 0 0 0 -3 3v2a3 3 0 0 0 3 3h1z"></path><path d="m43 11h1a3 3 0 0 1 3 3v2a3 3 0 0 1 -3 3h-1z"></path><path d="m27 25h6v5h-6z"></path><path d="m26 5a4 4 0 0 1 8 0z"></path></g><rect fill="#347f91" height="20" rx="4" width="26" x="17" y="5"></rect><circle cx="23.5" cy="11.5" fill="#82ecff" r="2.5"></circle><circle cx="36.5" cy="11.5" fill="#82ecff" r="2.5"></circle><path d="m32.946 17a1 1 0 0 1 1 1.285 4.228 4.228 0 0 1 -7.9 0 1 1 0 0 1 1-1.285z" fill="#82ecff"></path><path d="m20 29h20a2 2 0 0 1 2 2v10a0 0 0 0 1 0 0h-24a0 0 0 0 1 0 0v-10a2 2 0 0 1 2-2z" fill="#e1eaf4"></path><path d="m22 41v-6a2 2 0 0 1 2-2h12a2 2 0 0 1 2 2v6z" fill="#347f91"></path><path d="m39 26h-18a5.006 5.006 0 0 1 -5-5v-12a5.006 5.006 0 0 1 5-5h18a5.006 5.006 0 0 1 5 5v12a5.006 5.006 0 0 1 -5 5zm-18-20a3 3 0 0 0 -3 3v12a3 3 0 0 0 3 3h18a3 3 0 0 0 3-3v-12a3 3 0 0 0 -3-3z" fill="#e1eaf4"></path></svg>